<?xml version="1.0" encoding="UTF-8"?>
<svg width="200" height="60" viewBox="0 0 200 60" xmlns="http://www.w3.org/2000/svg">
  <style>
    .logo-text { font-family: 'Noto Sans JP', sans-serif; font-weight: 700; }
    .icon { fill: currentColor; }
  </style>
  <g fill="currentColor">
    <path d="M30 15c-8.3 0-15 6.7-15 15s6.7 15 15 15 15-6.7 15-15-6.7-15-15-15zm0 4c6.1 0 11 4.9 11 11s-4.9 11-11 11-11-4.9-11-11 4.9-11 11-11z"/>
    <path d="M30 26c-2.2 0-4 1.8-4 4s1.8 4 4 4 4-1.8 4-4-1.8-4-4-4z"/>
    <path d="M35.7 20.3l2.8-2.8 2.8 2.8-2.8 2.8-2.8-2.8zm-11.4 0l-2.8-2.8-2.8 2.8 2.8 2.8 2.8-2.8z"/>
  </g>
  <text x="60" y="38" class="logo-text" font-size="24">Construction</text>
</svg> 