<?xml version="1.0" encoding="UTF-8"?>
<svg width="200" height="60" viewBox="0 0 200 60" xmlns="http://www.w3.org/2000/svg">
  <style>
    .logo-text { font-family: 'Noto Sans JP', sans-serif; font-weight: 700; }
    .icon { fill: currentColor; }
  </style>
  <g fill="currentColor">
    <path d="M20 15c-2.2 0-4 1.8-4 4s1.8 4 4 4c1.1 0 2.1-.4 2.8-1.2L30 29l-7.2 7.2C22.1 35.4 21.1 35 20 35c-2.2 0-4 1.8-4 4s1.8 4 4 4 4-1.8 4-4c0-1.1-.4-2.1-1.2-2.8L30 29l7.2 7.2c-.8.7-1.2 1.7-1.2 2.8 0 2.2 1.8 4 4 4s4-1.8 4-4-1.8-4-4-4c-1.1 0-2.1.4-2.8 1.2L30 29l7.2-7.2c.7.8 1.7 1.2 2.8 1.2 2.2 0 4-1.8 4-4s-1.8-4-4-4-4 1.8-4 4c0 1.1.4 2.1 1.2 2.8L30 29l-7.2-7.2c.8-.7 1.2-1.7 1.2-2.8 0-2.2-1.8-4-4-4z"/>
  </g>
  <text x="60" y="38" class="logo-text" font-size="24">Beauty</text>
</svg> 